<svg width="20" height="21" viewBox="0 0 20 21" fill="none" xmlns="http://www.w3.org/2000/svg">
<path d="M13.8273 0V6.83203L19.6691 16.5439C20.5883 18.0725 19.487 20.0195 17.7033 20.0195H2.29707C0.505374 20.0194 -0.594551 18.0564 0.34102 16.5283L6.27852 6.83203V0H13.8273ZM8.8586 10.7021C7.32971 10.7021 6.08761 11.467 5.13204 12.8047C4.79026 13.2832 4.23711 14.1496 3.66817 15.0654C2.72924 16.5769 3.82827 18.5146 5.60762 18.5146H14.7375C16.4282 18.5144 17.5355 16.7476 16.7795 15.2354C16.1866 14.0493 15.5725 12.8505 15.2131 12.2314C14.5442 12.5182 13.5403 14.0466 12.3459 13.2822C11.1517 12.5176 10.3873 10.7022 8.8586 10.7021Z" fill="black"/>
</svg>
